<svg xmlns="http://www.w3.org/2000/svg" version="1.1" xmlns:xlink="http://www.w3.org/1999/xlink" xmlns:svgjs="http://svgjs.dev/svgjs" width="2000" height="1500" viewBox="0 0 2000 1500"><rect width="2000" height="1500" fill="#0c306e"></rect><g transform="matrix(0.75,0,0,0.75,249.090909090909,282.7536437246963)"><svg viewBox="0 0 396 247" data-background-color="#0c306e" preserveAspectRatio="xMidYMid meet" height="1247" width="2000" xmlns="http://www.w3.org/2000/svg" xmlns:xlink="http://www.w3.org/1999/xlink"><g id="tight-bounds" transform="matrix(1,0,0,1,0.2400000000000091,-0.09999999999999432)"><svg viewBox="0 0 395.52 247.2" height="247.2" width="395.52"><g><svg></svg></g><g><svg viewBox="0 0 395.52 247.2" height="247.2" width="395.52"><g transform="matrix(1,0,0,1,0,111.12796142719382)"><svg viewBox="0 0 395.52 24.944077145612344" height="24.944077145612344" width="395.52"><g><svg viewBox="0 0 395.52 24.944077145612344" height="24.944077145612344" width="395.52"><g><svg viewBox="0 0 395.52 24.944077145612344" height="24.944077145612344" width="395.52"><g><svg viewBox="0 0 395.52 24.944077145612344" height="24.944077145612344" width="395.52"><g><svg viewBox="0 0 395.52 24.944077145612344" height="24.944077145612344" width="395.52"><g><svg viewBox="0 0 395.52 24.944077145612344" height="24.944077145612344" width="395.52"><g transform="matrix(1,0,0,1,0,0)"><svg width="395.52" viewBox="1.75 -32.1 518.45 32.7" height="24.944077145612344" data-palette-color="#ffffff"><path d="M25.9 0L24.95 0 24.9-0.7Q24.85-1.75 24.1-1.75L24.1-1.75Q23.7-1.75 22.65-1.2L22.65-1.2Q19.4 0.6 16.1 0.6L16.1 0.6Q9.8 0.6 5.78-3.75 1.75-8.1 1.75-15.73 1.75-23.35 5.73-27.73 9.7-32.1 16.1-32.1L16.1-32.1Q19.35-32.1 22.6-30.45L22.6-30.45Q23.65-29.9 24.1-29.9L24.1-29.9Q24.85-29.9 24.9-30.95L24.9-30.95 24.95-31.8 25.9-31.8 25.9-23.15 25-23.15Q24.55-27 22.13-28.83 19.7-30.65 16.1-30.65L16.1-30.65Q11.55-30.65 8.78-26.65 6-22.65 6-15.7 6-8.75 8.8-4.8 11.6-0.85 16.1-0.85L16.1-0.85Q19.7-0.85 22.13-2.68 24.55-4.5 25-8.35L25-8.35 25.9-8.35 25.9 0ZM56.95-0.9L56.95 0 46.7 0 46.7-0.9 49.95-0.9 46.45-10.55 35.45-10.55 31.95-0.9 35.2-0.9 35.2 0 27.65 0 27.65-0.9 29.5-0.9Q30.2-0.9 30.45-1.6L30.45-1.6 41.45-31.5 43.15-31.5 54.15-1.6Q54.4-0.9 55.1-0.9L55.1-0.9 56.95-0.9ZM45.95-11.95L41-25.6 36-11.95 45.95-11.95ZM73.5 0L58.2 0 58.2-0.9 60.55-0.9Q61.25-0.9 61.25-1.6L61.25-1.6 61.25-30Q61.25-30.6 60.55-30.6L60.55-30.6 58.2-30.6 58.2-31.5 68.4-31.5 68.4-30.6 66.05-30.6Q65.35-30.6 65.35-30L65.35-30 65.35-1.4 75.3-1.4Q76.6-1.4 76.7-2.5L76.7-2.5 77.45-8.35 78.6-8.35 78.6-6Q78.6-1.6 79.05 0.45L79.05 0.45Q77.45 0 73.5 0L73.5 0ZM84.77-3.75Q80.79-8.1 80.79-15.75 80.79-23.4 84.77-27.75 88.74-32.1 95.12-32.1 101.49-32.1 105.47-27.75 109.44-23.4 109.44-15.75 109.44-8.1 105.47-3.75 101.49 0.6 95.12 0.6 88.74 0.6 84.77-3.75ZM87.92-26.75Q85.04-22.7 85.04-15.75 85.04-8.8 87.92-4.75 90.79-0.7 95.09-0.7 99.39-0.7 102.29-4.75 105.19-8.8 105.19-15.75 105.19-22.7 102.29-26.75 99.39-30.8 95.09-30.8 90.79-30.8 87.92-26.75ZM135.34-1.05L135.34-1.05Q136.09-1.05 136.57-1.68 137.04-2.3 137.04-3.18 137.04-4.05 136.89-4.8L136.89-4.8 137.84-4.95Q138.04-4.2 138.04-3.3L138.04-3.3Q138.04-1.5 136.97-0.45 135.89 0.6 134.19 0.6L134.19 0.6Q129.94 0.6 129.94-4.55 129.94-9.7 128.64-12.13 127.34-14.55 123.34-14.55L123.34-14.55 120.09-14.55 120.09-1.6Q120.09-0.9 120.79-0.9L120.79-0.9 124.14-0.9 124.14 0 112.94 0 112.94-0.9 115.29-0.9Q115.99-0.9 115.99-1.6L115.99-1.6 115.99-30Q115.99-30.6 115.29-30.6L115.29-30.6 112.94-30.6 112.94-31.5 125.39-31.5Q129.59-31.5 132.54-29.2 135.49-26.9 135.49-23.05L135.49-23.05Q135.49-19.95 133.57-17.82 131.64-15.7 128.49-14.9L128.49-14.9Q132.04-13.7 132.99-10.6L132.99-10.6Q133.74-8.05 133.74-4.55 133.74-1.05 135.34-1.05ZM125.14-30.1L125.14-30.1 120.09-30.1 120.09-16 125.14-16Q128.14-16 129.82-18.1 131.49-20.2 131.49-23.05 131.49-25.9 129.82-28 128.14-30.1 125.14-30.1ZM142.49-1.6L142.49-1.6 142.49-30Q142.49-30.6 141.79-30.6L141.79-30.6 139.44-30.6 139.44-31.5 149.64-31.5 149.64-30.6 147.29-30.6Q146.59-30.6 146.59-30L146.59-30 146.59-1.6Q146.59-0.9 147.29-0.9L147.29-0.9 149.64-0.9 149.64 0 139.44 0 139.44-0.9 141.79-0.9Q142.49-0.9 142.49-1.6ZM155.49-30.6L153.14-30.6 153.14-31.5 168.69-31.5Q172.64-31.5 174.24-31.95L174.24-31.95Q173.79-29.9 173.79-26.25L173.79-26.25 173.79-23.9 172.64-23.9 171.89-29Q171.79-30.1 170.49-30.1L170.49-30.1 160.29-30.1 160.29-16.45 170.14-16.45Q170.64-16.45 170.74-17.15L170.74-17.15 170.99-20.25 171.89-20.25 171.89-11.25 170.99-11.25 170.74-14.35Q170.64-15.05 170.14-15.05L170.14-15.05 160.29-15.05 160.29-1.6Q160.29-0.9 160.99-0.9L160.99-0.9 165.34-0.9 165.34 0 153.14 0 153.14-0.9 155.49-0.9Q156.19-0.9 156.19-1.6L156.19-1.6 156.19-30Q156.19-30.6 155.49-30.6L155.49-30.6ZM196.38-31.5L204.18-31.5 204.18-30.6 201.83-30.6Q201.13-30.6 201.13-30L201.13-30 201.13-9.75Q201.13-4.55 198.13-1.98 195.13 0.6 190.08 0.6 185.03 0.6 182.03-1.98 179.03-4.55 179.03-9.75L179.03-9.75 179.03-30Q179.03-30.6 178.33-30.6L178.33-30.6 175.98-30.6 175.98-31.5 186.18-31.5 186.18-30.6 183.83-30.6Q183.13-30.6 183.13-30L183.13-30 183.13-9.4Q183.13-5.2 185.21-3.18 187.28-1.15 190.86-1.15 194.43-1.15 196.93-3.18 199.43-5.2 199.43-9.75L199.43-9.75 199.43-30Q199.43-30.6 198.73-30.6L198.73-30.6 196.38-30.6 196.38-31.5ZM221.03-30.65L221.03-30.65Q216.48-30.65 213.71-26.65 210.93-22.65 210.93-15.7 210.93-8.75 213.73-4.8 216.53-0.85 220.75-0.85 224.98-0.85 226.66-3.03 228.33-5.2 228.33-9.4L228.33-9.4 228.33-11.4Q228.33-12 227.63-12L227.63-12 224.28-12 224.28-12.9 234.48-12.9 234.48-12 233.13-12Q232.43-12 232.43-11.4L232.43-11.4 232.43-9.6Q232.43-5.15 229.23-2.27 226.03 0.6 221.03 0.6L221.03 0.6Q214.73 0.6 210.71-3.75 206.68-8.1 206.68-15.73 206.68-23.35 210.66-27.73 214.63-32.1 221.03-32.1L221.03-32.1Q224.28-32.1 227.53-30.45L227.53-30.45Q228.58-29.9 229.03-29.9L229.03-29.9Q229.78-29.9 229.83-30.95L229.83-30.95 229.88-31.8 230.83-31.8 230.83-23.15 229.93-23.15Q229.48-27 227.06-28.83 224.63-30.65 221.03-30.65ZM252.78 0L236.23 0 236.23-0.9 238.58-0.9Q239.28-0.9 239.28-1.6L239.28-1.6 239.28-30Q239.28-30.6 238.58-30.6L238.58-30.6 236.23-30.6 236.23-31.5 252.08-31.5Q256.03-31.5 257.63-31.95L257.63-31.95Q257.18-29.9 257.18-26.25L257.18-26.25 257.18-23.9 256.03-23.9 255.28-29Q255.18-30.1 253.88-30.1L253.88-30.1 243.38-30.1 243.38-16.45 253.43-16.45Q254.03-16.45 254.13-17.15L254.13-17.15 254.38-20.25 255.28-20.25 255.28-11.25 254.38-11.25 254.13-14.35Q254.03-15.05 253.43-15.05L253.43-15.05 243.38-15.05 243.38-1.4 254.58-1.4Q255.88-1.4 255.98-2.5L255.98-2.5 256.73-8.35 257.88-8.35 257.88-6Q257.88-1.6 258.33 0.45L258.33 0.45Q256.73 0 252.78 0L252.78 0ZM289.13-0.9L289.13 0 278.88 0 278.88-0.9 282.13-0.9 278.63-10.55 267.63-10.55 264.13-0.9 267.38-0.9 267.38 0 259.83 0 259.83-0.9 261.68-0.9Q262.38-0.9 262.63-1.6L262.63-1.6 273.63-31.5 275.33-31.5 286.33-1.6Q286.58-0.9 287.28-0.9L287.28-0.9 289.13-0.9ZM278.13-11.95L273.18-25.6 268.18-11.95 278.13-11.95ZM303.72-30.65L303.72-30.65Q299.17-30.65 296.4-26.65 293.62-22.65 293.62-15.7 293.62-8.75 296.42-4.8 299.22-0.85 303.45-0.85 307.67-0.85 309.35-3.03 311.02-5.2 311.02-9.4L311.02-9.4 311.02-11.4Q311.02-12 310.32-12L310.32-12 306.97-12 306.97-12.9 317.17-12.9 317.17-12 315.82-12Q315.12-12 315.12-11.4L315.12-11.4 315.12-9.6Q315.12-5.15 311.92-2.27 308.72 0.6 303.72 0.6L303.72 0.6Q297.42 0.6 293.4-3.75 289.37-8.1 289.37-15.73 289.37-23.35 293.35-27.73 297.32-32.1 303.72-32.1L303.72-32.1Q306.97-32.1 310.22-30.45L310.22-30.45Q311.27-29.9 311.72-29.9L311.72-29.9Q312.47-29.9 312.52-30.95L312.52-30.95 312.57-31.8 313.52-31.8 313.52-23.15 312.62-23.15Q312.17-27 309.75-28.83 307.32-30.65 303.72-30.65ZM335.47 0L318.92 0 318.92-0.9 321.27-0.9Q321.97-0.9 321.97-1.6L321.97-1.6 321.97-30Q321.97-30.6 321.27-30.6L321.27-30.6 318.92-30.6 318.92-31.5 334.77-31.5Q338.72-31.5 340.32-31.95L340.32-31.95Q339.87-29.9 339.87-26.25L339.87-26.25 339.87-23.9 338.72-23.9 337.97-29Q337.87-30.1 336.57-30.1L336.57-30.1 326.07-30.1 326.07-16.45 336.12-16.45Q336.72-16.45 336.82-17.15L336.82-17.15 337.07-20.25 337.97-20.25 337.97-11.25 337.07-11.25 336.82-14.35Q336.72-15.05 336.12-15.05L336.12-15.05 326.07-15.05 326.07-1.4 337.27-1.4Q338.57-1.4 338.67-2.5L338.67-2.5 339.42-8.35 340.57-8.35 340.57-6Q340.57-1.6 341.02 0.45L341.02 0.45Q339.42 0 335.47 0L335.47 0ZM357.12-10.55L344.52-10.55 344.52-12.55 357.12-12.55 357.12-10.55ZM362.72-30.6L360.37-30.6 360.37-31.5 375.92-31.5Q379.87-31.5 381.47-31.95L381.47-31.95Q381.02-29.9 381.02-26.25L381.02-26.25 381.02-23.9 379.87-23.9 379.12-29Q379.02-30.1 377.72-30.1L377.72-30.1 367.52-30.1 367.52-16.45 377.37-16.45Q377.87-16.45 377.97-17.15L377.97-17.15 378.22-20.25 379.12-20.25 379.12-11.25 378.22-11.25 377.97-14.35Q377.87-15.05 377.37-15.05L377.37-15.05 367.52-15.05 367.52-1.6Q367.52-0.9 368.22-0.9L368.22-0.9 372.57-0.9 372.57 0 360.37 0 360.37-0.9 362.72-0.9Q363.42-0.9 363.42-1.6L363.42-1.6 363.42-30Q363.42-30.6 362.72-30.6L362.72-30.6ZM406.11-1.05L406.11-1.05Q406.86-1.05 407.34-1.68 407.81-2.3 407.81-3.18 407.81-4.05 407.66-4.8L407.66-4.8 408.61-4.95Q408.81-4.2 408.81-3.3L408.81-3.3Q408.81-1.5 407.74-0.45 406.66 0.6 404.96 0.6L404.96 0.6Q400.71 0.6 400.71-4.55 400.71-9.7 399.41-12.13 398.11-14.55 394.11-14.55L394.11-14.55 390.86-14.55 390.86-1.6Q390.86-0.9 391.56-0.9L391.56-0.9 394.91-0.9 394.91 0 383.71 0 383.71-0.9 386.06-0.9Q386.76-0.9 386.76-1.6L386.76-1.6 386.76-30Q386.76-30.6 386.06-30.6L386.06-30.6 383.71-30.6 383.71-31.5 396.16-31.5Q400.36-31.5 403.31-29.2 406.26-26.9 406.26-23.05L406.26-23.05Q406.26-19.95 404.34-17.82 402.41-15.7 399.26-14.9L399.26-14.9Q402.81-13.7 403.76-10.6L403.76-10.6Q404.51-8.05 404.51-4.55 404.51-1.05 406.11-1.05ZM395.91-30.1L395.91-30.1 390.86-30.1 390.86-16 395.91-16Q398.91-16 400.59-18.1 402.26-20.2 402.26-23.05 402.26-25.9 400.59-28 398.91-30.1 395.91-30.1ZM437.26-0.9L437.26 0 427.01 0 427.01-0.9 430.26-0.9 426.76-10.55 415.76-10.55 412.26-0.9 415.51-0.9 415.51 0 407.96 0 407.96-0.9 409.81-0.9Q410.51-0.9 410.76-1.6L410.76-1.6 421.76-31.5 423.46-31.5 434.46-1.6Q434.71-0.9 435.41-0.9L435.41-0.9 437.26-0.9ZM426.26-11.95L421.31-25.6 416.31-11.95 426.26-11.95ZM463.66 0L462.06 0 443.26-27.9 443.26-1.6Q443.26-0.9 443.96-0.9L443.96-0.9 446.31-0.9 446.31 0 438.51 0 438.51-0.9 440.86-0.9Q441.56-0.9 441.56-1.6L441.56-1.6 441.56-30Q441.56-30.6 440.86-30.6L440.86-30.6 438.51-30.6 438.51-31.5 445.86-31.5 461.96-7.7 461.96-29.9Q461.96-30.6 461.26-30.6L461.26-30.6 458.91-30.6 458.91-31.5 466.71-31.5 466.71-30.6 464.36-30.6Q463.66-30.6 463.66-30L463.66-30 463.66 0ZM494.11 0L493.16 0 493.11-0.7Q493.06-1.75 492.31-1.75L492.31-1.75Q491.91-1.75 490.86-1.2L490.86-1.2Q487.61 0.6 484.31 0.6L484.31 0.6Q478.01 0.6 473.98-3.75 469.96-8.1 469.96-15.73 469.96-23.35 473.93-27.73 477.91-32.1 484.31-32.1L484.31-32.1Q487.56-32.1 490.81-30.45L490.81-30.45Q491.86-29.9 492.31-29.9L492.31-29.9Q493.06-29.9 493.11-30.95L493.11-30.95 493.16-31.8 494.11-31.8 494.11-23.15 493.21-23.15Q492.76-27 490.33-28.83 487.91-30.65 484.31-30.65L484.31-30.65Q479.76-30.65 476.98-26.65 474.21-22.65 474.21-15.7 474.21-8.75 477.01-4.8 479.81-0.85 484.31-0.85L484.31-0.85Q487.91-0.85 490.33-2.68 492.76-4.5 493.21-8.35L493.21-8.35 494.11-8.35 494.11 0ZM514.65 0L498.1 0 498.1-0.9 500.45-0.9Q501.15-0.9 501.15-1.6L501.15-1.6 501.15-30Q501.15-30.6 500.45-30.6L500.45-30.6 498.1-30.6 498.1-31.5 513.95-31.5Q517.9-31.5 519.5-31.95L519.5-31.95Q519.05-29.9 519.05-26.25L519.05-26.25 519.05-23.9 517.9-23.9 517.15-29Q517.05-30.1 515.75-30.1L515.75-30.1 505.25-30.1 505.25-16.45 515.3-16.45Q515.9-16.45 516-17.15L516-17.15 516.25-20.25 517.15-20.25 517.15-11.25 516.25-11.25 516-14.35Q515.9-15.05 515.3-15.05L515.3-15.05 505.25-15.05 505.25-1.4 516.45-1.4Q517.75-1.4 517.85-2.5L517.85-2.5 518.6-8.35 519.75-8.35 519.75-6Q519.75-1.6 520.2 0.45L520.2 0.45Q518.6 0 514.65 0L514.65 0Z" opacity="1" transform="matrix(1,0,0,1,0,0)" fill="#ffffff" class="undefined-text-0" data-fill-palette-color="primary" id="text-0"></path></svg></g></svg></g></svg></g></svg></g><g></g></svg></g></svg></g></svg></g><g mask="url(#86d8a7af-70f6-4cf0-afa6-c07804689a47)"><g transform="matrix(6.06510845702875, 0, 0, 6.06510845702875, 79.82677975830538, 1)"><svg xmlns="http://www.w3.org/2000/svg" xmlns:xlink="http://www.w3.org/1999/xlink" version="1.1" x="0" y="0" viewBox="30.55520614631032 29.787033750552002 38.88907216655749 40.427966249448005" enable-background="new 0 0 100 100" xml:space="preserve" height="40.427966249448005" width="38.88907216655749" class="icon-none" data-fill-palette-color="accent" id="none"><g fill="#f14417" data-fill-palette-color="accent"><path d="M53.612 70.215c-0.054 0-0.108-0.004-0.161-0.012l-4.22-0.647-7.104-1.39c-0.207-0.041-0.398-0.142-0.548-0.292l-2.921-2.922c-0.4-0.401-0.417-1.044-0.038-1.465l1.222-1.356 0.732-8.713-2.211-1.676c-0.161-0.122-0.284-0.288-0.355-0.476l-1.115-2.995-4.851-1.47c-0.362-0.11-0.639-0.404-0.726-0.773l-0.732-3.085c-0.111-0.468 0.106-0.953 0.529-1.181l3.005-1.623c0.283-0.153 0.619-0.17 0.915-0.046l2.688 1.12 1.017-0.07-0.388-4.189c-0.028-0.306 0.077-0.609 0.289-0.832 0.212-0.222 0.518-0.349 0.816-0.329l1.867 0.081c0.257 0.012 0.501 0.115 0.687 0.292l1.287 1.223 1.548-0.099 0.922-1.295c0.082-0.116 0.187-0.213 0.308-0.288l2.381-1.47 0.63-2.73c0.081-0.353 0.338-0.642 0.68-0.763l2.516-0.895c0.345-0.124 0.731-0.059 1.018 0.169l4.516 3.585 2.277 0.513c0.331 0.075 0.606 0.303 0.742 0.614l0.598 1.375 2.642 0.608c0.282 0.064 0.526 0.241 0.675 0.49l0.726 1.21 3.095 0.562c0.286 0.052 0.538 0.218 0.698 0.46 0.16 0.242 0.214 0.539 0.15 0.822l-1.462 6.412c-0.033 0.145-0.096 0.281-0.185 0.4l-3.461 4.643 1.518 1.299c0.226 0.194 0.361 0.473 0.371 0.771l0.219 6.233 1.019 0.46c0.25 0.114 0.447 0.319 0.549 0.574l0.488 1.218c0.182 0.455 0.03 0.975-0.367 1.26l-4.301 3.084c-0.251 0.18-0.567 0.24-0.867 0.17l-6.912-1.651-1.421 1.316 0.07 2.68c0.008 0.315-0.123 0.618-0.36 0.826C54.12 70.122 53.87 70.215 53.612 70.215zM42.854 66.14l6.743 1.32 2.918 0.446-0.049-1.889c-0.008-0.307 0.116-0.601 0.341-0.809l2.191-2.029c0.26-0.242 0.625-0.338 0.97-0.254l6.993 1.67 3.229-2.315-0.018-0.046-1.231-0.555c-0.369-0.167-0.611-0.528-0.625-0.933L64.09 54.32l-1.918-1.642c-0.425-0.364-0.496-0.995-0.161-1.444l3.922-5.26 1.164-5.108-2.475-0.45c-0.302-0.054-0.565-0.237-0.723-0.5l-0.741-1.236-2.724-0.626c-0.329-0.076-0.603-0.303-0.738-0.613L59.1 36.069l-1.988-0.448c-0.156-0.036-0.302-0.106-0.427-0.204L52.44 32.05l-1.412 0.502-0.599 2.595c-0.064 0.277-0.236 0.516-0.478 0.666l-2.576 1.591-1.091 1.532c-0.186 0.26-0.479 0.424-0.798 0.444l-2.516 0.161c-0.3 0.023-0.586-0.086-0.801-0.29l-1.335-1.268-0.251-0.011 0.376 4.06c0.027 0.285-0.063 0.569-0.249 0.787-0.186 0.219-0.451 0.352-0.737 0.372l-2.354 0.162c-0.167 0.01-0.33-0.016-0.483-0.08l-2.451-1.022-1.84 0.995 0.402 1.696 4.77 1.445c0.318 0.096 0.572 0.336 0.688 0.647l1.191 3.199 2.431 1.842c0.291 0.22 0.448 0.574 0.418 0.937l-0.811 9.654c-0.02 0.232-0.114 0.451-0.27 0.623l-0.786 0.872L42.854 66.14z" fill="#f14417" data-fill-palette-color="accent"></path></g></svg></g></g></svg></g><defs><mask id="86d8a7af-70f6-4cf0-afa6-c07804689a47"><rect width="640" height="400" fill="white"></rect><rect width="435.072" height="36.7214730580675" fill="black" y="181.63926347096626" x="102.464" id="transform-me" transform="matrix(1,0,0,1,-122.24000000000001,-76.4)"></rect></mask></defs></svg><rect width="395.52" height="247.2" fill="none" stroke="none" visibility="hidden"></rect></g></svg></g></svg>