<?xml version="1.0" standalone="no"?>
<!DOCTYPE svg PUBLIC "-//W3C//DTD SVG 20010904//EN"
 "http://www.w3.org/TR/2001/REC-SVG-20010904/DTD/svg10.dtd">
<svg version="1.0" xmlns="http://www.w3.org/2000/svg"
 width="411.000000pt" height="182.000000pt" viewBox="0 0 411.000000 182.000000"
 preserveAspectRatio="xMidYMid meet">

<g transform="translate(0.000000,182.000000) scale(0.100000,-0.100000)"
fill="#000000" stroke="none">
<path d="M222 1068 l3 -333 1860 0 1860 0 3 333 2 332 -1865 0 -1865 0 2 -332z
m3646 -3 l2 -255 -1785 0 -1785 0 0 253 c0 140 2 256 4 258 2 2 805 3 1783 2
l1778 -3 3 -255z"/>
<path d="M442 1178 c-16 -16 -16 -220 0 -236 16 -16 100 -16 116 0 7 7 12 25
12 40 0 23 -4 28 -25 28 -19 0 -25 -5 -25 -21 0 -15 -5 -20 -22 -17 -22 3 -23
7 -23 88 0 81 1 85 23 88 17 3 22 -2 22 -17 0 -16 6 -21 25 -21 21 0 25 5 25
28 0 39 -17 52 -70 52 -25 0 -51 -5 -58 -12z"/>
<path d="M656 1178 c-10 -31 -56 -228 -56 -238 0 -5 9 -10 20 -10 11 0 20 6
20 13 0 49 62 59 74 12 4 -17 13 -25 27 -25 18 0 21 4 15 28 -4 15 -17 72 -30
127 -20 86 -26 100 -45 103 -11 2 -23 -3 -25 -10z m36 -123 c2 -21 -1 -30 -12
-30 -8 0 -15 6 -14 13 1 6 2 24 3 39 1 35 19 19 23 -22z"/>
<path d="M790 1060 l0 -130 65 0 c58 0 65 2 65 20 0 17 -7 20 -45 20 l-45 0 0
110 c0 103 -1 110 -20 110 -19 0 -20 -7 -20 -130z"/>
<path d="M962 1178 c-8 -8 -12 -47 -12 -119 0 -124 5 -132 77 -127 l48 3 0
125 0 125 -50 3 c-30 2 -55 -2 -63 -10z m78 -119 c0 -88 -1 -90 -22 -87 -21 3
-23 9 -26 77 -3 87 0 101 28 101 19 0 20 -6 20 -91z"/>
<path d="M1130 1188 c0 -2 -2 -60 -3 -131 -2 -126 -2 -127 21 -127 20 0 22 5
22 51 0 65 21 62 34 -4 8 -41 13 -47 34 -47 18 0 23 4 18 16 -14 36 -18 92 -7
98 15 10 14 119 -1 134 -10 10 -117 18 -118 10z m86 -63 c8 -34 -1 -55 -26
-55 -17 0 -20 6 -20 40 0 33 3 40 20 40 13 0 22 -9 26 -25z"/>
<path d="M1300 1060 c0 -123 1 -130 20 -130 19 0 20 7 20 130 0 123 -1 130
-20 130 -19 0 -20 -7 -20 -130z"/>
<path d="M1380 1060 c0 -123 1 -130 20 -130 18 0 20 7 20 55 0 48 2 55 20 55
13 0 20 7 20 20 0 13 -7 20 -20 20 -16 0 -20 7 -20 35 0 35 0 35 46 35 38 0
45 3 42 18 -3 14 -16 18 -66 20 l-62 3 0 -131z"/>
<path d="M1540 1071 c0 -137 4 -144 77 -139 l48 3 3 128 c2 122 2 127 -18 127
-19 0 -20 -6 -20 -111 0 -109 0 -110 -22 -107 -22 3 -23 8 -26 111 -2 99 -4
107 -22 107 -19 0 -20 -7 -20 -119z"/>
<path d="M1724 1177 c-2 -7 -3 -65 -2 -128 l3 -114 48 -3 c66 -4 77 8 77 79 0
59 0 59 -30 59 -33 0 -39 -16 -18 -49 15 -24 4 -51 -22 -51 -19 0 -20 6 -20
90 0 85 1 90 21 90 12 0 23 -8 26 -20 3 -11 14 -20 24 -20 14 0 19 7 19 28 0
15 -5 33 -12 40 -17 17 -107 16 -114 -1z"/>
<path d="M1890 1060 l0 -130 65 0 c58 0 65 2 65 20 0 17 -7 20 -45 20 -43 0
-45 1 -45 30 0 23 6 33 25 40 31 12 33 38 3 42 -18 2 -24 11 -26 36 -3 32 -3
32 42 32 39 0 46 3 46 20 0 18 -7 20 -65 20 l-65 0 0 -130z"/>
<path d="M2100 1185 c0 -3 -11 -46 -24 -97 -38 -149 -39 -158 -17 -158 12 0
23 11 30 30 5 17 17 30 25 30 19 0 46 -27 46 -46 0 -8 9 -14 21 -14 17 0 20 5
17 23 -48 223 -53 237 -75 237 -13 0 -23 -2 -23 -5z m33 -130 c1 -15 -4 -30
-10 -32 -9 -3 -13 8 -13 38 0 48 19 43 23 -6z"/>
<path d="M2244 1177 c-2 -7 -3 -65 -2 -128 l3 -114 48 -3 c66 -4 77 8 77 80
l0 59 -32 -3 c-24 -2 -32 -7 -29 -18 2 -8 6 -30 9 -47 4 -28 1 -33 -17 -33
-20 0 -21 5 -21 90 0 83 1 90 20 90 13 0 20 -7 20 -20 0 -15 7 -20 25 -20 21
0 25 5 25 28 0 15 -5 33 -12 40 -17 17 -107 16 -114 -1z"/>
<path d="M2410 1060 l0 -131 62 3 c50 2 63 6 66 21 3 14 -4 17 -42 17 -46 0
-46 0 -46 34 0 28 4 35 22 38 31 4 36 36 6 40 -18 2 -24 10 -26 36 -3 32 -3
32 43 32 39 0 46 3 43 18 -3 14 -16 18 -66 20 l-62 3 0 -131z"/>
<path d="M2740 1060 c0 -123 1 -130 20 -130 17 0 20 7 20 51 0 42 3 52 20 56
11 3 20 13 20 23 0 10 -9 20 -20 23 -15 4 -20 14 -20 36 0 30 1 31 45 31 38 0
45 3 45 20 0 18 -7 20 -65 20 l-65 0 0 -130z"/>
<path d="M2900 1060 l0 -130 25 0 c23 0 25 3 25 50 0 28 4 50 10 50 9 0 30
-61 30 -87 0 -7 9 -13 20 -13 18 0 20 4 14 54 -4 35 -3 56 5 60 15 10 14 119
-1 134 -7 7 -38 12 -70 12 l-58 0 0 -130z m95 70 c9 -30 -4 -60 -26 -60 -16 0
-19 7 -19 40 0 33 3 40 19 40 11 0 23 -9 26 -20z"/>
<path d="M3094 1060 l-31 -130 24 0 c16 0 23 6 23 19 0 24 25 45 45 37 8 -3
20 -17 27 -31 13 -29 53 -36 44 -7 -3 9 -17 68 -31 130 -24 100 -29 112 -48
112 -20 0 -25 -13 -53 -130z m66 -6 c0 -33 -12 -45 -25 -24 -9 15 5 71 16 64
5 -3 9 -21 9 -40z"/>
<path d="M3260 1060 l0 -130 25 0 c24 0 24 2 22 70 -1 39 1 70 4 70 3 0 18
-31 33 -70 24 -60 31 -70 52 -70 l24 0 0 130 0 130 -25 0 c-23 0 -24 -3 -27
-72 l-3 -73 -29 73 c-25 61 -33 72 -53 72 -23 0 -23 0 -23 -130z"/>
<path d="M3462 1178 c-16 -16 -16 -220 0 -236 16 -16 100 -16 116 0 7 7 12 25
12 40 0 23 -4 28 -24 28 -17 0 -23 -5 -22 -17 0 -12 -7 -19 -21 -21 -22 -3
-23 -1 -23 88 0 89 1 91 23 88 15 -2 21 -9 19 -20 -2 -13 4 -18 23 -18 21 0
25 5 25 28 0 39 -17 52 -70 52 -25 0 -51 -5 -58 -12z"/>
<path d="M3630 1060 l0 -130 65 0 c58 0 65 2 65 20 0 17 -7 20 -45 20 -45 0
-45 0 -45 35 0 28 4 35 20 35 13 0 20 7 20 19 0 10 -9 21 -20 24 -15 4 -20 14
-20 36 0 30 1 31 46 31 38 0 45 3 42 18 -3 14 -16 18 -66 20 l-62 3 0 -131z"/>
<path d="M2570 1060 c0 -18 7 -20 65 -20 58 0 65 2 65 20 0 18 -7 20 -65 20
-58 0 -65 -2 -65 -20z"/>
<path d="M960 464 c0 -8 5 -12 10 -9 6 4 8 11 5 16 -9 14 -15 11 -15 -7z"/>
<path d="M2735 460 c3 -5 8 -10 11 -10 2 0 4 5 4 10 0 6 -5 10 -11 10 -5 0 -7
-4 -4 -10z"/>
<path d="M1050 431 c0 -6 5 -13 10 -16 6 -3 10 1 10 9 0 9 -4 16 -10 16 -5 0
-10 -4 -10 -9z"/>
<path d="M1365 430 c3 -5 11 -10 16 -10 6 0 7 5 4 10 -3 6 -11 10 -16 10 -6 0
-7 -4 -4 -10z"/>
<path d="M1770 430 c0 -5 5 -10 10 -10 6 0 10 5 10 10 0 6 -4 10 -10 10 -5 0
-10 -4 -10 -10z"/>
<path d="M1997 423 c-4 -3 -7 -11 -7 -17 0 -6 5 -5 12 2 6 6 9 14 7 17 -3 3
-9 2 -12 -2z"/>
<path d="M2456 415 c-3 -8 -1 -15 4 -15 6 0 10 7 10 15 0 8 -2 15 -4 15 -2 0
-6 -7 -10 -15z"/>
<path d="M2605 405 c-3 -8 -7 -21 -9 -29 -3 -8 1 -16 7 -19 8 -3 12 7 12 29 0
37 -3 42 -10 19z"/>
<path d="M2990 409 c0 -5 5 -7 10 -4 6 3 10 8 10 11 0 2 -4 4 -10 4 -5 0 -10
-5 -10 -11z"/>
<path d="M3055 409 c-11 -16 -1 -19 13 -3 7 8 8 14 3 14 -5 0 -13 -5 -16 -11z"/>
<path d="M1582 390 c-7 -11 -8 -20 -3 -20 9 0 24 30 18 36 -1 2 -8 -6 -15 -16z"/>
<path d="M3267 396 c-4 -10 -5 -21 -2 -24 9 -9 17 6 13 25 -3 17 -4 17 -11 -1z"/>
<path d="M950 390 c0 -5 5 -10 11 -10 5 0 7 5 4 10 -3 6 -8 10 -11 10 -2 0 -4
-4 -4 -10z"/>
<path d="M2660 390 c0 -5 5 -10 11 -10 5 0 7 5 4 10 -3 6 -8 10 -11 10 -2 0
-4 -4 -4 -10z"/>
<path d="M1475 380 c3 -5 8 -10 11 -10 2 0 4 5 4 10 0 6 -5 10 -11 10 -5 0 -7
-4 -4 -10z"/>
<path d="M1870 380 c0 -5 5 -10 10 -10 6 0 10 5 10 10 0 6 -4 10 -10 10 -5 0
-10 -4 -10 -10z"/>
<path d="M2230 380 c0 -5 5 -10 10 -10 6 0 10 5 10 10 0 6 -4 10 -10 10 -5 0
-10 -4 -10 -10z"/>
<path d="M3340 380 c0 -5 5 -10 10 -10 6 0 10 5 10 10 0 6 -4 10 -10 10 -5 0
-10 -4 -10 -10z"/>
<path d="M800 360 c0 -5 5 -10 10 -10 6 0 10 5 10 10 0 6 -4 10 -10 10 -5 0
-10 -4 -10 -10z"/>
</g>
</svg>
