<?xml version="1.0" standalone="no"?>
<!DOCTYPE svg PUBLIC "-//W3C//DTD SVG 20010904//EN"
 "http://www.w3.org/TR/2001/REC-SVG-20010904/DTD/svg10.dtd">
<svg version="1.0" xmlns="http://www.w3.org/2000/svg"
 width="398.000000pt" height="98.000000pt" viewBox="0 0 398.000000 98.000000"
 preserveAspectRatio="xMidYMid meet">

<g transform="translate(0.000000,98.000000) scale(0.100000,-0.100000)"
fill="#000000" stroke="none">
<path d="M7 973 c-4 -3 -7 -120 -7 -260 l0 -253 1985 0 1985 0 -2 258 -3 257
-1976 3 c-1087 1 -1979 -1 -1982 -5z m3881 -255 l-3 -193 -1900 0 -1900 0 -3
193 -2 192 1905 0 1905 0 -2 -192z"/>
<path d="M242 780 c-33 -31 -32 -111 3 -134 31 -20 101 -21 108 -2 5 11 -1 13
-27 9 -42 -7 -58 13 -54 69 3 43 3 43 41 43 28 0 37 4 35 15 -5 25 -79 25
-106 0z"/>
<path d="M430 786 c0 -8 -11 -46 -24 -85 l-24 -71 23 0 c14 0 25 7 28 20 3 13
14 20 31 20 15 0 31 -8 38 -20 7 -11 23 -20 35 -20 l22 0 -24 65 c-14 36 -25
74 -25 85 0 17 -7 20 -40 20 -28 0 -40 -4 -40 -14z m52 -88 c-6 -6 -18 -8 -26
-5 -13 5 -13 12 -4 38 l11 32 14 -28 c10 -18 12 -30 5 -37z"/>
<path d="M590 715 l0 -85 59 0 c40 0 60 4 64 14 4 10 -4 13 -31 12 l-37 -1 -3
73 c-3 69 -4 72 -27 72 -25 0 -25 -1 -25 -85z"/>
<path d="M768 786 c-14 -10 -18 -28 -18 -71 0 -69 14 -84 81 -85 59 0 79 20
79 83 0 60 -26 87 -84 87 -23 0 -49 -7 -58 -14z m90 -73 c3 -45 0 -52 -18 -58
-32 -10 -50 12 -50 60 0 49 6 57 40 53 23 -3 25 -8 28 -55z"/>
<path d="M962 715 c0 -83 0 -85 24 -85 20 0 24 5 24 30 0 23 5 30 19 30 12 0
23 -11 30 -30 7 -23 16 -30 36 -30 25 0 25 0 10 31 -15 28 -15 33 -1 54 37 56
6 85 -88 85 l-53 0 -1 -85z m108 36 c0 -20 -32 -37 -50 -26 -5 3 -10 15 -10
26 0 14 7 19 30 19 23 0 30 -5 30 -19z"/>
<path d="M1170 715 c0 -84 0 -85 25 -85 26 0 26 0 24 85 -2 82 -2 85 -25 85
-23 0 -24 -2 -24 -85z"/>
<path d="M1280 715 c0 -86 0 -86 38 -85 4 0 7 15 7 33 0 27 4 32 25 32 15 0
26 7 28 18 3 13 -4 17 -27 17 -24 0 -31 4 -31 20 0 17 7 20 40 20 29 0 40 4
40 15 0 12 -13 15 -60 15 l-60 0 0 -85z"/>
<path d="M1435 728 c0 -86 9 -97 75 -97 69 0 80 13 80 98 0 68 -1 71 -23 71
-22 0 -23 -3 -19 -57 4 -69 -12 -99 -46 -89 -20 7 -22 14 -22 77 0 65 -1 69
-22 69 -22 0 -23 -4 -23 -72z"/>
<path d="M1673 785 c-19 -13 -23 -25 -23 -71 0 -68 14 -84 72 -84 54 1 78 18
78 59 0 26 -4 31 -25 31 -22 0 -25 -4 -25 -35 0 -27 -4 -35 -18 -35 -28 0 -42
20 -42 60 0 45 15 60 58 60 48 0 36 24 -14 28 -24 2 -48 -4 -61 -13z"/>
<path d="M1850 716 l0 -84 56 -4 c50 -3 74 5 74 23 0 4 -18 5 -40 2 -38 -5
-40 -4 -40 21 0 21 5 26 25 26 16 0 25 6 25 15 0 9 -9 15 -25 15 -18 0 -25 5
-25 20 0 16 7 20 35 20 24 0 35 5 35 15 0 12 -13 15 -60 15 l-60 0 0 -84z"/>
<path d="M2022 728 c-13 -40 -25 -79 -28 -85 -9 -21 30 -15 44 7 7 12 23 20
38 20 17 0 28 -7 31 -20 4 -14 14 -20 35 -20 23 0 28 3 21 13 -5 6 -20 45 -33
85 -23 69 -26 72 -55 72 -30 0 -32 -3 -53 -72z m68 -16 c0 -17 -5 -22 -17 -20
-17 4 -19 22 -7 58 4 13 6 13 14 0 6 -8 10 -25 10 -38z"/>
<path d="M2223 783 c-19 -13 -23 -25 -23 -73 0 -51 3 -58 26 -70 31 -17 89
-17 109 0 8 7 15 28 15 47 0 30 -3 34 -22 31 -17 -2 -22 -10 -23 -33 0 -25 -4
-30 -25 -30 -24 0 -25 3 -25 55 l0 55 43 0 c31 0 41 4 37 13 -3 8 -5 16 -5 18
0 11 -88 1 -107 -13z"/>
<path d="M2400 716 l0 -84 56 -4 c50 -3 74 5 74 23 0 4 -18 5 -40 2 -38 -5
-40 -4 -40 21 0 21 5 26 25 26 16 0 25 6 25 15 0 9 -9 15 -25 15 -18 0 -25 5
-25 20 0 16 7 20 36 20 61 0 35 25 -29 28 l-57 3 0 -85z"/>
<path d="M2690 712 c0 -87 1 -89 23 -85 17 3 22 11 22 36 0 27 4 32 23 31 15
0 22 5 22 18 0 13 -7 18 -25 18 -18 0 -25 5 -25 20 0 17 7 20 41 20 65 0 44
24 -24 28 l-57 3 0 -89z"/>
<path d="M2847 713 c1 -49 4 -87 7 -85 3 1 13 2 21 2 10 0 15 10 15 30 0 22 5
30 18 30 10 0 22 -12 29 -30 8 -22 18 -30 36 -30 25 0 25 1 10 30 -13 28 -13
33 1 55 35 54 6 85 -80 85 l-59 0 2 -87z m101 35 c-2 -17 -10 -23 -28 -23 -18
0 -26 6 -28 23 -3 19 1 22 28 22 27 0 31 -3 28 -22z"/>
<path d="M3062 728 c-13 -40 -25 -79 -28 -85 -9 -21 30 -15 44 7 7 12 23 20
38 20 17 0 28 -7 31 -20 4 -13 14 -20 30 -20 16 0 23 5 21 13 -3 6 -15 45 -28
85 -23 69 -25 72 -55 72 -30 0 -32 -3 -53 -72z m62 16 c12 -33 6 -54 -15 -54
-17 0 -20 4 -15 23 3 12 6 28 6 35 0 17 17 15 24 -4z"/>
<path d="M3250 711 c0 -81 2 -89 18 -84 14 3 17 12 14 39 -8 66 6 72 40 17 18
-29 40 -54 50 -56 16 -5 18 2 18 68 0 40 3 80 6 89 4 12 0 16 -15 16 -18 0
-21 -6 -21 -40 0 -22 -4 -40 -9 -40 -6 0 -20 18 -32 40 -16 29 -29 40 -46 40
-22 0 -23 -3 -23 -89z"/>
<path d="M3472 780 c-33 -31 -32 -111 3 -134 31 -20 101 -21 108 -2 5 11 -1
13 -27 9 -42 -7 -58 13 -54 69 3 43 3 43 41 43 28 0 37 4 35 15 -5 25 -79 25
-106 0z"/>
<path d="M3640 798 c-1 -2 -2 -40 -3 -86 l-2 -82 63 0 c43 0 62 4 62 13 0 7
-14 12 -37 12 -32 0 -39 4 -41 23 -3 18 1 22 22 22 16 0 26 6 26 15 0 9 -9 15
-25 15 -18 0 -25 5 -25 20 0 17 7 20 40 20 31 0 38 3 34 15 -5 11 -21 15 -60
15 -30 0 -54 -1 -54 -2z"/>
<path d="M2560 705 c0 -11 11 -15 40 -15 29 0 40 4 40 15 0 11 -11 15 -40 15
-29 0 -40 -4 -40 -15z"/>
<path d="M1380 306 c0 -2 7 -7 16 -10 8 -3 12 -2 9 4 -6 10 -25 14 -25 6z"/>
<path d="M3550 285 c-7 -9 -11 -17 -9 -20 3 -2 10 5 17 15 14 24 10 26 -8 5z"/>
<path d="M3582 270 c0 -19 2 -27 5 -17 2 9 2 25 0 35 -3 9 -5 1 -5 -18z"/>
<path d="M271 244 c0 -11 3 -14 6 -6 3 7 2 16 -1 19 -3 4 -6 -2 -5 -13z"/>
<path d="M494 249 c-16 -6 -16 -8 -2 -8 13 -1 18 -12 21 -48 l3 -48 2 47 c2
40 5 47 25 50 21 3 21 4 -4 9 -14 3 -34 2 -45 -2z"/>
<path d="M2816 250 c-18 -6 -18 -7 -3 -13 9 -3 27 -3 39 2 20 7 20 8 2 13 -11
3 -28 2 -38 -2z"/>
<path d="M3528 198 c-4 -52 8 -77 37 -77 6 0 3 4 -6 9 -12 7 -17 25 -18 61 -1
69 -8 73 -13 7z"/>
<path d="M420 216 c0 -2 13 -6 29 -8 17 -2 28 -1 25 4 -5 8 -54 12 -54 4z"/>
<path d="M626 206 c7 -19 38 -22 32 -3 -3 6 -12 13 -21 15 -12 2 -15 -1 -11
-12z"/>
<path d="M822 192 c-11 -25 -11 -25 4 -10 9 9 15 21 13 27 -2 6 -10 -2 -17
-17z"/>
<path d="M1040 205 c7 -8 16 -15 21 -15 5 0 9 7 9 15 0 9 -9 15 -21 15 -18 0
-19 -2 -9 -15z"/>
<path d="M1195 209 c-4 -6 -5 -12 -2 -15 2 -3 7 2 10 11 7 17 1 20 -8 4z"/>
<path d="M1430 209 c0 -5 5 -7 10 -4 6 3 10 8 10 11 0 2 -4 4 -10 4 -5 0 -10
-5 -10 -11z"/>
<path d="M1574 204 c3 -9 6 -18 6 -20 0 -3 6 1 14 8 16 15 11 28 -11 28 -10 0
-13 -6 -9 -16z"/>
<path d="M1715 209 c-4 -6 -5 -12 -2 -15 2 -3 7 2 10 11 7 17 1 20 -8 4z"/>
<path d="M2068 203 c-21 -25 -29 -61 -13 -66 8 -4 10 3 7 19 -2 13 1 31 8 39
16 19 57 19 63 0 4 -11 4 -10 3 2 -2 25 -48 29 -68 6z"/>
<path d="M2180 209 c0 -5 5 -7 10 -4 6 3 10 8 10 11 0 2 -4 4 -10 4 -5 0 -10
-5 -10 -11z"/>
<path d="M2686 212 c-3 -5 8 -6 25 -4 16 2 29 6 29 8 0 8 -49 4 -54 -4z"/>
<path d="M2818 180 c-2 -24 1 -40 7 -40 6 0 9 16 7 40 -2 22 -5 40 -7 40 -2 0
-5 -18 -7 -40z"/>
<path d="M2947 191 c-22 -43 -21 -45 4 -20 11 11 19 28 17 37 -3 12 -9 7 -21
-17z"/>
<path d="M3056 211 c-4 -5 3 -7 14 -4 11 3 28 -1 38 -8 15 -13 16 -12 3 4 -14
18 -46 23 -55 8z"/>
<path d="M3413 213 c9 -2 23 -2 30 0 6 3 -1 5 -18 5 -16 0 -22 -2 -12 -5z"/>
<path d="M3691 204 c0 -11 3 -14 6 -6 3 7 2 16 -1 19 -3 4 -6 -2 -5 -13z"/>
<path d="M1876 201 c-4 -7 -5 -15 -2 -18 9 -9 19 4 14 18 -4 11 -6 11 -12 0z"/>
<path d="M2466 201 c-4 -7 -5 -15 -2 -18 9 -9 19 4 14 18 -4 11 -6 11 -12 0z"/>
<path d="M3167 204 c-11 -11 -8 -36 3 -29 6 3 10 -2 11 -12 0 -10 3 -13 5 -7
6 15 -10 57 -19 48z"/>
<path d="M3255 199 c-9 -14 -2 -20 14 -10 8 6 9 11 3 15 -6 3 -14 1 -17 -5z"/>
<path d="M3375 199 c-4 -6 -5 -12 -2 -15 2 -3 7 2 10 11 7 17 1 20 -8 4z"/>
<path d="M1317 158 c-9 -16 -12 -26 -7 -23 5 3 12 -1 17 -8 5 -9 16 -11 33 -6
24 7 24 7 3 8 -24 1 -32 28 -13 47 7 7 6 11 -3 11 -7 0 -21 -13 -30 -29z"/>
<path d="M1420 166 c0 -26 13 -35 25 -16 3 6 -1 17 -9 26 -15 14 -16 13 -16
-10z"/>
<path d="M2170 166 c0 -26 13 -35 25 -16 3 6 -1 17 -9 26 -15 14 -16 13 -16
-10z"/>
<path d="M3622 180 c3 -8 2 -22 -2 -30 -6 -11 -2 -15 15 -15 24 0 23 18 -4 45
-13 13 -14 13 -9 0z"/>
<path d="M391 164 c0 -11 3 -14 6 -6 3 7 2 16 -1 19 -3 4 -6 -2 -5 -13z"/>
<path d="M609 153 l-24 -28 28 24 c15 14 27 26 27 28 0 8 -8 1 -31 -24z"/>
<path d="M1183 165 c0 -7 8 -17 18 -23 14 -9 16 -8 12 8 -6 22 -30 34 -30 15z"/>
<path d="M2536 165 c-3 -9 -6 -22 -5 -28 0 -7 5 -1 10 12 5 13 8 26 5 28 -2 2
-6 -3 -10 -12z"/>
<path d="M2581 164 c0 -11 3 -14 6 -6 3 7 2 16 -1 19 -3 4 -6 -2 -5 -13z"/>
<path d="M2736 165 c-3 -8 -1 -15 4 -15 6 0 10 7 10 15 0 8 -2 15 -4 15 -2 0
-6 -7 -10 -15z"/>
<path d="M764 153 c-9 -15 -7 -18 11 -18 16 0 21 5 17 18 -2 9 -7 17 -11 17
-3 0 -11 -8 -17 -17z"/>
<path d="M1706 155 c-3 -9 0 -15 9 -15 8 0 15 7 15 15 0 8 -4 15 -9 15 -5 0
-11 -7 -15 -15z"/>
<path d="M1981 154 c0 -11 3 -14 6 -6 3 7 2 16 -1 19 -3 4 -6 -2 -5 -13z"/>
<path d="M2646 154 c-8 -21 -8 -21 8 -21 8 0 11 8 8 19 -5 22 -8 23 -16 2z"/>
<path d="M3018 152 c-4 -12 1 -18 13 -18 14 0 15 4 8 18 -12 23 -15 23 -21 0z"/>
<path d="M3121 147 c-13 -21 -12 -21 5 -5 10 10 16 20 13 22 -3 3 -11 -5 -18
-17z"/>
<path d="M3346 155 c-3 -9 0 -15 9 -15 9 0 12 6 9 15 -4 8 -7 15 -9 15 -2 0
-5 -7 -9 -15z"/>
<path d="M3440 164 c0 -3 7 -12 15 -20 16 -17 18 -14 9 10 -6 15 -24 23 -24
10z"/>
<path d="M300 143 c0 -13 5 -23 10 -23 13 0 13 11 0 30 -8 12 -10 11 -10 -7z"/>
<path d="M1901 144 c0 -11 3 -14 6 -6 3 7 2 16 -1 19 -3 4 -6 -2 -5 -13z"/>
<path d="M2970 141 c0 -10 19 -25 25 -20 1 2 -3 10 -11 17 -8 7 -14 8 -14 3z"/>
<path d="M3297 129 c7 -7 15 -10 18 -7 3 3 -2 9 -12 12 -14 6 -15 5 -6 -5z"/>
<path d="M433 123 c9 -2 23 -2 30 0 6 3 -1 5 -18 5 -16 0 -22 -2 -12 -5z"/>
<path d="M548 123 c6 -2 18 -2 25 0 6 3 1 5 -13 5 -14 0 -19 -2 -12 -5z"/>
<path d="M833 123 c9 -2 23 -2 30 0 6 3 -1 5 -18 5 -16 0 -22 -2 -12 -5z"/>
<path d="M1243 123 c9 -2 25 -2 35 0 9 3 1 5 -18 5 -19 0 -27 -2 -17 -5z"/>
<path d="M1483 123 c9 -2 23 -2 30 0 6 3 -1 5 -18 5 -16 0 -22 -2 -12 -5z"/>
<path d="M1773 123 c9 -2 23 -2 30 0 6 3 -1 5 -18 5 -16 0 -22 -2 -12 -5z"/>
<path d="M2008 123 c7 -3 16 -2 19 1 4 3 -2 6 -13 5 -11 0 -14 -3 -6 -6z"/>
<path d="M2093 123 c9 -2 25 -2 35 0 9 3 1 5 -18 5 -19 0 -27 -2 -17 -5z"/>
<path d="M2233 123 c9 -2 23 -2 30 0 6 3 -1 5 -18 5 -16 0 -22 -2 -12 -5z"/>
<path d="M2608 123 c7 -3 16 -2 19 1 4 3 -2 6 -13 5 -11 0 -14 -3 -6 -6z"/>
<path d="M2858 123 c6 -2 18 -2 25 0 6 3 1 5 -13 5 -14 0 -19 -2 -12 -5z"/>
<path d="M3068 123 c6 -2 18 -2 25 0 6 3 1 5 -13 5 -14 0 -19 -2 -12 -5z"/>
<path d="M3683 123 c9 -2 25 -2 35 0 9 3 1 5 -18 5 -19 0 -27 -2 -17 -5z"/>
</g>
</svg>
